<mxfile host="www.draw.io" modified="2024-04-08T13:09:23.189Z" agent="Mozilla/5.0 (Windows NT 10.0; Win64; x64) AppleWebKit/537.36 (KHTML, like Gecko) Chrome/122.0.0.0 Safari/537.36" etag="ltc2AMEyxWfl2Gyak0iu" version="24.2.2" type="device">
  <diagram name="第 1 页" id="qB2G8F0mElvEtpcveaUi">
    <mxGraphModel dx="1304" dy="765" grid="1" gridSize="10" guides="1" tooltips="1" connect="1" arrows="1" fold="1" page="1" pageScale="1" pageWidth="827" pageHeight="1169" math="0" shadow="0">
      <root>
        <mxCell id="0" />
        <mxCell id="1" parent="0" />
        <mxCell id="w7LAmgqfVQM2vjNdfEjv-116" style="rounded=0;orthogonalLoop=1;jettySize=auto;html=1;exitX=0.026;exitY=0.564;exitDx=0;exitDy=0;entryX=1;entryY=0;entryDx=0;entryDy=0;endArrow=none;endFill=0;exitPerimeter=0;" edge="1" parent="1" target="w7LAmgqfVQM2vjNdfEjv-119">
          <mxGeometry relative="1" as="geometry">
            <mxPoint x="487.02000000000044" y="632.28" as="sourcePoint" />
          </mxGeometry>
        </mxCell>
        <mxCell id="w7LAmgqfVQM2vjNdfEjv-118" style="rounded=0;orthogonalLoop=1;jettySize=auto;html=1;exitX=1;exitY=1;exitDx=0;exitDy=0;entryX=0;entryY=0.5;entryDx=0;entryDy=0;endArrow=none;endFill=0;" edge="1" parent="1" source="w7LAmgqfVQM2vjNdfEjv-119">
          <mxGeometry relative="1" as="geometry">
            <mxPoint x="486.5000000000002" y="656" as="targetPoint" />
          </mxGeometry>
        </mxCell>
        <mxCell id="w7LAmgqfVQM2vjNdfEjv-218" value="&lt;font size=&quot;1&quot; style=&quot;&quot; face=&quot;Times New Roman&quot;&gt;&lt;b style=&quot;font-size: 18px;&quot;&gt;PROBLEM&lt;/b&gt;&lt;/font&gt;" style="ellipse;shape=cloud;whiteSpace=wrap;html=1;" vertex="1" parent="1">
          <mxGeometry x="180" y="213" width="150" height="90" as="geometry" />
        </mxCell>
        <mxCell id="w7LAmgqfVQM2vjNdfEjv-220" value="" style="group" vertex="1" connectable="0" parent="1">
          <mxGeometry x="430" y="283" width="200" height="133" as="geometry" />
        </mxCell>
        <mxCell id="w7LAmgqfVQM2vjNdfEjv-1" value="" style="ellipse;whiteSpace=wrap;html=1;aspect=fixed;" vertex="1" parent="w7LAmgqfVQM2vjNdfEjv-220">
          <mxGeometry x="30" width="20" height="20" as="geometry" />
        </mxCell>
        <mxCell id="w7LAmgqfVQM2vjNdfEjv-2" value="" style="ellipse;whiteSpace=wrap;html=1;aspect=fixed;" vertex="1" parent="w7LAmgqfVQM2vjNdfEjv-220">
          <mxGeometry y="47" width="20" height="20" as="geometry" />
        </mxCell>
        <mxCell id="w7LAmgqfVQM2vjNdfEjv-3" value="" style="ellipse;whiteSpace=wrap;html=1;aspect=fixed;" vertex="1" parent="w7LAmgqfVQM2vjNdfEjv-220">
          <mxGeometry y="75" width="20" height="20" as="geometry" />
        </mxCell>
        <mxCell id="w7LAmgqfVQM2vjNdfEjv-4" value="" style="ellipse;whiteSpace=wrap;html=1;aspect=fixed;" vertex="1" parent="w7LAmgqfVQM2vjNdfEjv-220">
          <mxGeometry y="20" width="20" height="20" as="geometry" />
        </mxCell>
        <mxCell id="w7LAmgqfVQM2vjNdfEjv-17" value="" style="ellipse;whiteSpace=wrap;html=1;aspect=fixed;" vertex="1" parent="w7LAmgqfVQM2vjNdfEjv-220">
          <mxGeometry x="30" y="57" width="20" height="20" as="geometry" />
        </mxCell>
        <mxCell id="w7LAmgqfVQM2vjNdfEjv-18" value="" style="ellipse;whiteSpace=wrap;html=1;aspect=fixed;" vertex="1" parent="w7LAmgqfVQM2vjNdfEjv-220">
          <mxGeometry x="30" y="85" width="20" height="20" as="geometry" />
        </mxCell>
        <mxCell id="w7LAmgqfVQM2vjNdfEjv-19" value="" style="ellipse;whiteSpace=wrap;html=1;aspect=fixed;" vertex="1" parent="w7LAmgqfVQM2vjNdfEjv-220">
          <mxGeometry x="30" y="30" width="20" height="20" as="geometry" />
        </mxCell>
        <mxCell id="w7LAmgqfVQM2vjNdfEjv-20" value="" style="ellipse;whiteSpace=wrap;html=1;aspect=fixed;" vertex="1" parent="w7LAmgqfVQM2vjNdfEjv-220">
          <mxGeometry x="60" y="20" width="20" height="20" as="geometry" />
        </mxCell>
        <mxCell id="w7LAmgqfVQM2vjNdfEjv-21" value="" style="ellipse;whiteSpace=wrap;html=1;aspect=fixed;" vertex="1" parent="w7LAmgqfVQM2vjNdfEjv-220">
          <mxGeometry x="60" y="77" width="20" height="20" as="geometry" />
        </mxCell>
        <mxCell id="w7LAmgqfVQM2vjNdfEjv-22" value="" style="ellipse;whiteSpace=wrap;html=1;aspect=fixed;" vertex="1" parent="w7LAmgqfVQM2vjNdfEjv-220">
          <mxGeometry x="60" y="105" width="20" height="20" as="geometry" />
        </mxCell>
        <mxCell id="w7LAmgqfVQM2vjNdfEjv-23" value="" style="ellipse;whiteSpace=wrap;html=1;aspect=fixed;" vertex="1" parent="w7LAmgqfVQM2vjNdfEjv-220">
          <mxGeometry x="60" y="50" width="20" height="20" as="geometry" />
        </mxCell>
        <mxCell id="w7LAmgqfVQM2vjNdfEjv-24" value="" style="ellipse;whiteSpace=wrap;html=1;aspect=fixed;" vertex="1" parent="w7LAmgqfVQM2vjNdfEjv-220">
          <mxGeometry x="30" y="112" width="20" height="20" as="geometry" />
        </mxCell>
        <mxCell id="w7LAmgqfVQM2vjNdfEjv-25" value="" style="ellipse;whiteSpace=wrap;html=1;aspect=fixed;" vertex="1" parent="w7LAmgqfVQM2vjNdfEjv-220">
          <mxGeometry x="89" width="20" height="20" as="geometry" />
        </mxCell>
        <mxCell id="w7LAmgqfVQM2vjNdfEjv-26" value="" style="ellipse;whiteSpace=wrap;html=1;aspect=fixed;" vertex="1" parent="w7LAmgqfVQM2vjNdfEjv-220">
          <mxGeometry x="89" y="57" width="20" height="20" as="geometry" />
        </mxCell>
        <mxCell id="w7LAmgqfVQM2vjNdfEjv-27" value="" style="ellipse;whiteSpace=wrap;html=1;aspect=fixed;" vertex="1" parent="w7LAmgqfVQM2vjNdfEjv-220">
          <mxGeometry x="89" y="85" width="20" height="20" as="geometry" />
        </mxCell>
        <mxCell id="w7LAmgqfVQM2vjNdfEjv-28" value="" style="ellipse;whiteSpace=wrap;html=1;aspect=fixed;" vertex="1" parent="w7LAmgqfVQM2vjNdfEjv-220">
          <mxGeometry x="89" y="30" width="20" height="20" as="geometry" />
        </mxCell>
        <mxCell id="w7LAmgqfVQM2vjNdfEjv-29" value="" style="ellipse;whiteSpace=wrap;html=1;aspect=fixed;" vertex="1" parent="w7LAmgqfVQM2vjNdfEjv-220">
          <mxGeometry x="89" y="112" width="20" height="20" as="geometry" />
        </mxCell>
        <mxCell id="w7LAmgqfVQM2vjNdfEjv-30" value="" style="ellipse;whiteSpace=wrap;html=1;aspect=fixed;" vertex="1" parent="w7LAmgqfVQM2vjNdfEjv-220">
          <mxGeometry x="120" y="21" width="20" height="20" as="geometry" />
        </mxCell>
        <mxCell id="w7LAmgqfVQM2vjNdfEjv-31" value="" style="ellipse;whiteSpace=wrap;html=1;aspect=fixed;" vertex="1" parent="w7LAmgqfVQM2vjNdfEjv-220">
          <mxGeometry x="120" y="78" width="20" height="20" as="geometry" />
        </mxCell>
        <mxCell id="w7LAmgqfVQM2vjNdfEjv-32" value="" style="ellipse;whiteSpace=wrap;html=1;aspect=fixed;" vertex="1" parent="w7LAmgqfVQM2vjNdfEjv-220">
          <mxGeometry x="120" y="106" width="20" height="20" as="geometry" />
        </mxCell>
        <mxCell id="w7LAmgqfVQM2vjNdfEjv-33" value="" style="ellipse;whiteSpace=wrap;html=1;aspect=fixed;" vertex="1" parent="w7LAmgqfVQM2vjNdfEjv-220">
          <mxGeometry x="120" y="51" width="20" height="20" as="geometry" />
        </mxCell>
        <mxCell id="w7LAmgqfVQM2vjNdfEjv-34" value="" style="ellipse;whiteSpace=wrap;html=1;aspect=fixed;" vertex="1" parent="w7LAmgqfVQM2vjNdfEjv-220">
          <mxGeometry x="149" y="1" width="20" height="20" as="geometry" />
        </mxCell>
        <mxCell id="w7LAmgqfVQM2vjNdfEjv-35" value="" style="ellipse;whiteSpace=wrap;html=1;aspect=fixed;" vertex="1" parent="w7LAmgqfVQM2vjNdfEjv-220">
          <mxGeometry x="149" y="58" width="20" height="20" as="geometry" />
        </mxCell>
        <mxCell id="w7LAmgqfVQM2vjNdfEjv-36" value="" style="ellipse;whiteSpace=wrap;html=1;aspect=fixed;" vertex="1" parent="w7LAmgqfVQM2vjNdfEjv-220">
          <mxGeometry x="149" y="86" width="20" height="20" as="geometry" />
        </mxCell>
        <mxCell id="w7LAmgqfVQM2vjNdfEjv-37" value="" style="ellipse;whiteSpace=wrap;html=1;aspect=fixed;" vertex="1" parent="w7LAmgqfVQM2vjNdfEjv-220">
          <mxGeometry x="149" y="31" width="20" height="20" as="geometry" />
        </mxCell>
        <mxCell id="w7LAmgqfVQM2vjNdfEjv-38" value="" style="ellipse;whiteSpace=wrap;html=1;aspect=fixed;" vertex="1" parent="w7LAmgqfVQM2vjNdfEjv-220">
          <mxGeometry x="149" y="113" width="20" height="20" as="geometry" />
        </mxCell>
        <mxCell id="w7LAmgqfVQM2vjNdfEjv-39" value="" style="ellipse;whiteSpace=wrap;html=1;aspect=fixed;" vertex="1" parent="w7LAmgqfVQM2vjNdfEjv-220">
          <mxGeometry x="180" y="74" width="20" height="20" as="geometry" />
        </mxCell>
        <mxCell id="w7LAmgqfVQM2vjNdfEjv-40" value="" style="ellipse;whiteSpace=wrap;html=1;aspect=fixed;" vertex="1" parent="w7LAmgqfVQM2vjNdfEjv-220">
          <mxGeometry x="180" y="47" width="20" height="20" as="geometry" />
        </mxCell>
        <mxCell id="w7LAmgqfVQM2vjNdfEjv-221" value="" style="group" vertex="1" connectable="0" parent="1">
          <mxGeometry x="422" y="508.5" width="235" height="180.5" as="geometry" />
        </mxCell>
        <mxCell id="w7LAmgqfVQM2vjNdfEjv-189" style="rounded=0;orthogonalLoop=1;jettySize=auto;html=1;exitX=0.5;exitY=1;exitDx=0;exitDy=0;entryX=0.5;entryY=0;entryDx=0;entryDy=0;endArrow=none;endFill=0;strokeWidth=3;" edge="1" parent="w7LAmgqfVQM2vjNdfEjv-221" source="w7LAmgqfVQM2vjNdfEjv-101" target="w7LAmgqfVQM2vjNdfEjv-115">
          <mxGeometry relative="1" as="geometry" />
        </mxCell>
        <mxCell id="w7LAmgqfVQM2vjNdfEjv-122" value="" style="ellipse;whiteSpace=wrap;html=1;aspect=fixed;" vertex="1" parent="w7LAmgqfVQM2vjNdfEjv-221">
          <mxGeometry x="77" y="111.5" width="69" height="69" as="geometry" />
        </mxCell>
        <mxCell id="w7LAmgqfVQM2vjNdfEjv-190" style="rounded=0;orthogonalLoop=1;jettySize=auto;html=1;exitX=0.5;exitY=1;exitDx=0;exitDy=0;entryX=0.5;entryY=0;entryDx=0;entryDy=0;endArrow=none;endFill=0;strokeWidth=3;" edge="1" parent="w7LAmgqfVQM2vjNdfEjv-221" source="w7LAmgqfVQM2vjNdfEjv-124" target="w7LAmgqfVQM2vjNdfEjv-122">
          <mxGeometry relative="1" as="geometry" />
        </mxCell>
        <mxCell id="w7LAmgqfVQM2vjNdfEjv-124" value="" style="ellipse;whiteSpace=wrap;html=1;aspect=fixed;" vertex="1" parent="w7LAmgqfVQM2vjNdfEjv-221">
          <mxGeometry x="86" y="24.5" width="69" height="69" as="geometry" />
        </mxCell>
        <mxCell id="w7LAmgqfVQM2vjNdfEjv-145" value="" style="ellipse;whiteSpace=wrap;html=1;aspect=fixed;" vertex="1" parent="w7LAmgqfVQM2vjNdfEjv-221">
          <mxGeometry x="107" y="50.5" width="20" height="20" as="geometry" />
        </mxCell>
        <mxCell id="w7LAmgqfVQM2vjNdfEjv-146" value="" style="ellipse;whiteSpace=wrap;html=1;aspect=fixed;" vertex="1" parent="w7LAmgqfVQM2vjNdfEjv-221">
          <mxGeometry x="103" y="71.5" width="20" height="20" as="geometry" />
        </mxCell>
        <mxCell id="w7LAmgqfVQM2vjNdfEjv-147" value="" style="ellipse;whiteSpace=wrap;html=1;aspect=fixed;" vertex="1" parent="w7LAmgqfVQM2vjNdfEjv-221">
          <mxGeometry x="104" y="27.5" width="20" height="20" as="geometry" />
        </mxCell>
        <mxCell id="w7LAmgqfVQM2vjNdfEjv-170" style="rounded=0;orthogonalLoop=1;jettySize=auto;html=1;exitX=0;exitY=1;exitDx=0;exitDy=0;entryX=1;entryY=0.5;entryDx=0;entryDy=0;endArrow=none;endFill=0;" edge="1" parent="w7LAmgqfVQM2vjNdfEjv-221" source="w7LAmgqfVQM2vjNdfEjv-148" target="w7LAmgqfVQM2vjNdfEjv-146">
          <mxGeometry relative="1" as="geometry" />
        </mxCell>
        <mxCell id="w7LAmgqfVQM2vjNdfEjv-191" style="rounded=0;orthogonalLoop=1;jettySize=auto;html=1;exitX=1;exitY=1;exitDx=0;exitDy=0;entryX=0;entryY=0;entryDx=0;entryDy=0;endArrow=none;endFill=0;strokeWidth=3;" edge="1" parent="w7LAmgqfVQM2vjNdfEjv-221" source="w7LAmgqfVQM2vjNdfEjv-148" target="w7LAmgqfVQM2vjNdfEjv-123">
          <mxGeometry relative="1" as="geometry" />
        </mxCell>
        <mxCell id="w7LAmgqfVQM2vjNdfEjv-148" value="" style="ellipse;whiteSpace=wrap;html=1;aspect=fixed;" vertex="1" parent="w7LAmgqfVQM2vjNdfEjv-221">
          <mxGeometry x="129" y="63.5" width="20" height="20" as="geometry" />
        </mxCell>
        <mxCell id="w7LAmgqfVQM2vjNdfEjv-172" style="rounded=0;orthogonalLoop=1;jettySize=auto;html=1;exitX=0.5;exitY=1;exitDx=0;exitDy=0;entryX=0.5;entryY=0;entryDx=0;entryDy=0;endArrow=none;endFill=0;" edge="1" parent="w7LAmgqfVQM2vjNdfEjv-221" source="w7LAmgqfVQM2vjNdfEjv-149" target="w7LAmgqfVQM2vjNdfEjv-148">
          <mxGeometry relative="1" as="geometry" />
        </mxCell>
        <mxCell id="w7LAmgqfVQM2vjNdfEjv-173" style="rounded=0;orthogonalLoop=1;jettySize=auto;html=1;exitX=0;exitY=0;exitDx=0;exitDy=0;entryX=1;entryY=0.5;entryDx=0;entryDy=0;endArrow=none;endFill=0;" edge="1" parent="w7LAmgqfVQM2vjNdfEjv-221" source="w7LAmgqfVQM2vjNdfEjv-149" target="w7LAmgqfVQM2vjNdfEjv-147">
          <mxGeometry relative="1" as="geometry" />
        </mxCell>
        <mxCell id="w7LAmgqfVQM2vjNdfEjv-149" value="" style="ellipse;whiteSpace=wrap;html=1;aspect=fixed;" vertex="1" parent="w7LAmgqfVQM2vjNdfEjv-221">
          <mxGeometry x="130" y="37.5" width="20" height="20" as="geometry" />
        </mxCell>
        <mxCell id="w7LAmgqfVQM2vjNdfEjv-150" value="" style="ellipse;whiteSpace=wrap;html=1;aspect=fixed;" vertex="1" parent="w7LAmgqfVQM2vjNdfEjv-221">
          <mxGeometry x="80" y="134.5" width="20" height="20" as="geometry" />
        </mxCell>
        <mxCell id="w7LAmgqfVQM2vjNdfEjv-151" value="" style="ellipse;whiteSpace=wrap;html=1;aspect=fixed;" vertex="1" parent="w7LAmgqfVQM2vjNdfEjv-221">
          <mxGeometry x="91" y="156.5" width="20" height="20" as="geometry" />
        </mxCell>
        <mxCell id="w7LAmgqfVQM2vjNdfEjv-174" style="rounded=0;orthogonalLoop=1;jettySize=auto;html=1;exitX=0;exitY=1;exitDx=0;exitDy=0;entryX=1;entryY=0;entryDx=0;entryDy=0;endArrow=none;endFill=0;" edge="1" parent="w7LAmgqfVQM2vjNdfEjv-221" source="w7LAmgqfVQM2vjNdfEjv-152" target="w7LAmgqfVQM2vjNdfEjv-150">
          <mxGeometry relative="1" as="geometry" />
        </mxCell>
        <mxCell id="w7LAmgqfVQM2vjNdfEjv-176" style="rounded=0;orthogonalLoop=1;jettySize=auto;html=1;exitX=1;exitY=1;exitDx=0;exitDy=0;entryX=0;entryY=0;entryDx=0;entryDy=0;endArrow=none;endFill=0;" edge="1" parent="w7LAmgqfVQM2vjNdfEjv-221" source="w7LAmgqfVQM2vjNdfEjv-152" target="w7LAmgqfVQM2vjNdfEjv-154">
          <mxGeometry relative="1" as="geometry" />
        </mxCell>
        <mxCell id="w7LAmgqfVQM2vjNdfEjv-152" value="" style="ellipse;whiteSpace=wrap;html=1;aspect=fixed;" vertex="1" parent="w7LAmgqfVQM2vjNdfEjv-221">
          <mxGeometry x="102" y="113.5" width="20" height="20" as="geometry" />
        </mxCell>
        <mxCell id="w7LAmgqfVQM2vjNdfEjv-153" value="" style="ellipse;whiteSpace=wrap;html=1;aspect=fixed;" vertex="1" parent="w7LAmgqfVQM2vjNdfEjv-221">
          <mxGeometry x="115" y="155.5" width="20" height="20" as="geometry" />
        </mxCell>
        <mxCell id="w7LAmgqfVQM2vjNdfEjv-154" value="" style="ellipse;whiteSpace=wrap;html=1;aspect=fixed;" vertex="1" parent="w7LAmgqfVQM2vjNdfEjv-221">
          <mxGeometry x="124" y="131.5" width="20" height="20" as="geometry" />
        </mxCell>
        <mxCell id="w7LAmgqfVQM2vjNdfEjv-171" style="rounded=0;orthogonalLoop=1;jettySize=auto;html=1;exitX=0;exitY=0;exitDx=0;exitDy=0;entryX=0.965;entryY=0.714;entryDx=0;entryDy=0;entryPerimeter=0;endArrow=none;endFill=0;" edge="1" parent="w7LAmgqfVQM2vjNdfEjv-221" source="w7LAmgqfVQM2vjNdfEjv-148" target="w7LAmgqfVQM2vjNdfEjv-145">
          <mxGeometry relative="1" as="geometry" />
        </mxCell>
        <mxCell id="w7LAmgqfVQM2vjNdfEjv-175" style="rounded=0;orthogonalLoop=1;jettySize=auto;html=1;exitX=0.5;exitY=1;exitDx=0;exitDy=0;entryX=0.646;entryY=0.013;entryDx=0;entryDy=0;entryPerimeter=0;endArrow=none;endFill=0;" edge="1" parent="w7LAmgqfVQM2vjNdfEjv-221" source="w7LAmgqfVQM2vjNdfEjv-152" target="w7LAmgqfVQM2vjNdfEjv-151">
          <mxGeometry relative="1" as="geometry" />
        </mxCell>
        <mxCell id="w7LAmgqfVQM2vjNdfEjv-177" style="rounded=0;orthogonalLoop=1;jettySize=auto;html=1;exitX=1;exitY=0.5;exitDx=0;exitDy=0;entryX=-0.007;entryY=0.566;entryDx=0;entryDy=0;entryPerimeter=0;endArrow=none;endFill=0;" edge="1" parent="w7LAmgqfVQM2vjNdfEjv-221" source="w7LAmgqfVQM2vjNdfEjv-151" target="w7LAmgqfVQM2vjNdfEjv-153">
          <mxGeometry relative="1" as="geometry" />
        </mxCell>
        <mxCell id="w7LAmgqfVQM2vjNdfEjv-188" style="rounded=0;orthogonalLoop=1;jettySize=auto;html=1;exitX=1;exitY=0.5;exitDx=0;exitDy=0;endArrow=none;endFill=0;strokeWidth=3;entryX=-0.003;entryY=0.457;entryDx=0;entryDy=0;entryPerimeter=0;" edge="1" parent="w7LAmgqfVQM2vjNdfEjv-221" source="w7LAmgqfVQM2vjNdfEjv-101" target="w7LAmgqfVQM2vjNdfEjv-124">
          <mxGeometry relative="1" as="geometry">
            <mxPoint x="87" y="56.5" as="targetPoint" />
          </mxGeometry>
        </mxCell>
        <mxCell id="w7LAmgqfVQM2vjNdfEjv-192" style="rounded=1;orthogonalLoop=1;jettySize=auto;html=1;exitX=1;exitY=0;exitDx=0;exitDy=0;entryX=0.001;entryY=0.45;entryDx=0;entryDy=0;entryPerimeter=0;endArrow=none;endFill=0;strokeWidth=3;curved=0;" edge="1" parent="w7LAmgqfVQM2vjNdfEjv-221" source="w7LAmgqfVQM2vjNdfEjv-122" target="w7LAmgqfVQM2vjNdfEjv-123">
          <mxGeometry relative="1" as="geometry" />
        </mxCell>
        <mxCell id="w7LAmgqfVQM2vjNdfEjv-194" value="" style="group" vertex="1" connectable="0" parent="w7LAmgqfVQM2vjNdfEjv-221">
          <mxGeometry x="160" y="83.5" width="69" height="69" as="geometry" />
        </mxCell>
        <mxCell id="w7LAmgqfVQM2vjNdfEjv-123" value="" style="ellipse;whiteSpace=wrap;html=1;aspect=fixed;" vertex="1" parent="w7LAmgqfVQM2vjNdfEjv-194">
          <mxGeometry width="69" height="69" as="geometry" />
        </mxCell>
        <mxCell id="w7LAmgqfVQM2vjNdfEjv-155" value="" style="ellipse;whiteSpace=wrap;html=1;aspect=fixed;" vertex="1" parent="w7LAmgqfVQM2vjNdfEjv-194">
          <mxGeometry x="3" y="24" width="20" height="20" as="geometry" />
        </mxCell>
        <mxCell id="w7LAmgqfVQM2vjNdfEjv-186" style="rounded=0;orthogonalLoop=1;jettySize=auto;html=1;exitX=0;exitY=0;exitDx=0;exitDy=0;entryX=0.5;entryY=1;entryDx=0;entryDy=0;endArrow=none;endFill=0;" edge="1" parent="w7LAmgqfVQM2vjNdfEjv-194" source="w7LAmgqfVQM2vjNdfEjv-156" target="w7LAmgqfVQM2vjNdfEjv-155">
          <mxGeometry relative="1" as="geometry" />
        </mxCell>
        <mxCell id="w7LAmgqfVQM2vjNdfEjv-156" value="" style="ellipse;whiteSpace=wrap;html=1;aspect=fixed;" vertex="1" parent="w7LAmgqfVQM2vjNdfEjv-194">
          <mxGeometry x="21" y="48" width="20" height="20" as="geometry" />
        </mxCell>
        <mxCell id="w7LAmgqfVQM2vjNdfEjv-158" value="" style="ellipse;whiteSpace=wrap;html=1;aspect=fixed;" vertex="1" parent="w7LAmgqfVQM2vjNdfEjv-194">
          <mxGeometry x="44" y="34" width="20" height="20" as="geometry" />
        </mxCell>
        <mxCell id="w7LAmgqfVQM2vjNdfEjv-184" style="rounded=0;orthogonalLoop=1;jettySize=auto;html=1;exitX=0.5;exitY=1;exitDx=0;exitDy=0;entryX=0.5;entryY=0;entryDx=0;entryDy=0;endArrow=none;endFill=0;" edge="1" parent="w7LAmgqfVQM2vjNdfEjv-194" source="w7LAmgqfVQM2vjNdfEjv-159" target="w7LAmgqfVQM2vjNdfEjv-156">
          <mxGeometry relative="1" as="geometry" />
        </mxCell>
        <mxCell id="w7LAmgqfVQM2vjNdfEjv-187" style="rounded=0;orthogonalLoop=1;jettySize=auto;html=1;exitX=1;exitY=1;exitDx=0;exitDy=0;entryX=0.5;entryY=0;entryDx=0;entryDy=0;endArrow=none;endFill=0;" edge="1" parent="w7LAmgqfVQM2vjNdfEjv-194" source="w7LAmgqfVQM2vjNdfEjv-159" target="w7LAmgqfVQM2vjNdfEjv-158">
          <mxGeometry relative="1" as="geometry" />
        </mxCell>
        <mxCell id="w7LAmgqfVQM2vjNdfEjv-159" value="" style="ellipse;whiteSpace=wrap;html=1;aspect=fixed;" vertex="1" parent="w7LAmgqfVQM2vjNdfEjv-194">
          <mxGeometry x="31" y="7" width="20" height="20" as="geometry" />
        </mxCell>
        <mxCell id="w7LAmgqfVQM2vjNdfEjv-195" value="" style="group" vertex="1" connectable="0" parent="w7LAmgqfVQM2vjNdfEjv-221">
          <mxGeometry x="166" width="69" height="69" as="geometry" />
        </mxCell>
        <mxCell id="w7LAmgqfVQM2vjNdfEjv-121" value="" style="ellipse;whiteSpace=wrap;html=1;aspect=fixed;" vertex="1" parent="w7LAmgqfVQM2vjNdfEjv-195">
          <mxGeometry width="69" height="69" as="geometry" />
        </mxCell>
        <mxCell id="w7LAmgqfVQM2vjNdfEjv-182" style="rounded=0;orthogonalLoop=1;jettySize=auto;html=1;exitX=1;exitY=0.5;exitDx=0;exitDy=0;entryX=0;entryY=1;entryDx=0;entryDy=0;endArrow=none;endFill=0;" edge="1" parent="w7LAmgqfVQM2vjNdfEjv-195" source="w7LAmgqfVQM2vjNdfEjv-157" target="w7LAmgqfVQM2vjNdfEjv-168">
          <mxGeometry relative="1" as="geometry" />
        </mxCell>
        <mxCell id="w7LAmgqfVQM2vjNdfEjv-157" value="" style="ellipse;whiteSpace=wrap;html=1;aspect=fixed;" vertex="1" parent="w7LAmgqfVQM2vjNdfEjv-195">
          <mxGeometry x="14" y="45.5" width="20" height="20" as="geometry" />
        </mxCell>
        <mxCell id="w7LAmgqfVQM2vjNdfEjv-180" style="rounded=0;orthogonalLoop=1;jettySize=auto;html=1;exitX=1;exitY=0.5;exitDx=0;exitDy=0;entryX=0;entryY=0.5;entryDx=0;entryDy=0;endArrow=none;endFill=0;" edge="1" parent="w7LAmgqfVQM2vjNdfEjv-195" source="w7LAmgqfVQM2vjNdfEjv-165" target="w7LAmgqfVQM2vjNdfEjv-166">
          <mxGeometry relative="1" as="geometry" />
        </mxCell>
        <mxCell id="w7LAmgqfVQM2vjNdfEjv-165" value="" style="ellipse;whiteSpace=wrap;html=1;aspect=fixed;" vertex="1" parent="w7LAmgqfVQM2vjNdfEjv-195">
          <mxGeometry x="1" y="24.5" width="20" height="20" as="geometry" />
        </mxCell>
        <mxCell id="w7LAmgqfVQM2vjNdfEjv-181" style="rounded=0;orthogonalLoop=1;jettySize=auto;html=1;exitX=0;exitY=1;exitDx=0;exitDy=0;entryX=0.5;entryY=0;entryDx=0;entryDy=0;endArrow=none;endFill=0;" edge="1" parent="w7LAmgqfVQM2vjNdfEjv-195" source="w7LAmgqfVQM2vjNdfEjv-166" target="w7LAmgqfVQM2vjNdfEjv-157">
          <mxGeometry relative="1" as="geometry" />
        </mxCell>
        <mxCell id="w7LAmgqfVQM2vjNdfEjv-166" value="" style="ellipse;whiteSpace=wrap;html=1;aspect=fixed;" vertex="1" parent="w7LAmgqfVQM2vjNdfEjv-195">
          <mxGeometry x="25" y="24.5" width="20" height="20" as="geometry" />
        </mxCell>
        <mxCell id="w7LAmgqfVQM2vjNdfEjv-179" style="rounded=0;orthogonalLoop=1;jettySize=auto;html=1;exitX=0;exitY=1;exitDx=0;exitDy=0;entryX=1;entryY=0;entryDx=0;entryDy=0;endArrow=none;endFill=0;" edge="1" parent="w7LAmgqfVQM2vjNdfEjv-195" source="w7LAmgqfVQM2vjNdfEjv-167" target="w7LAmgqfVQM2vjNdfEjv-165">
          <mxGeometry relative="1" as="geometry" />
        </mxCell>
        <mxCell id="w7LAmgqfVQM2vjNdfEjv-167" value="" style="ellipse;whiteSpace=wrap;html=1;aspect=fixed;" vertex="1" parent="w7LAmgqfVQM2vjNdfEjv-195">
          <mxGeometry x="19" y="1.5" width="20" height="20" as="geometry" />
        </mxCell>
        <mxCell id="w7LAmgqfVQM2vjNdfEjv-168" value="" style="ellipse;whiteSpace=wrap;html=1;aspect=fixed;" vertex="1" parent="w7LAmgqfVQM2vjNdfEjv-195">
          <mxGeometry x="42" y="39.5" width="20" height="20" as="geometry" />
        </mxCell>
        <mxCell id="w7LAmgqfVQM2vjNdfEjv-169" value="" style="ellipse;whiteSpace=wrap;html=1;aspect=fixed;" vertex="1" parent="w7LAmgqfVQM2vjNdfEjv-195">
          <mxGeometry x="45" y="12.5" width="20" height="20" as="geometry" />
        </mxCell>
        <mxCell id="w7LAmgqfVQM2vjNdfEjv-183" style="rounded=0;orthogonalLoop=1;jettySize=auto;html=1;exitX=0.5;exitY=1;exitDx=0;exitDy=0;entryX=0.577;entryY=0;entryDx=0;entryDy=0;entryPerimeter=0;endArrow=none;endFill=0;" edge="1" parent="w7LAmgqfVQM2vjNdfEjv-195" source="w7LAmgqfVQM2vjNdfEjv-169" target="w7LAmgqfVQM2vjNdfEjv-168">
          <mxGeometry relative="1" as="geometry" />
        </mxCell>
        <mxCell id="w7LAmgqfVQM2vjNdfEjv-193" style="rounded=1;orthogonalLoop=1;jettySize=auto;html=1;exitX=0.5;exitY=1;exitDx=0;exitDy=0;entryX=0.5;entryY=0;entryDx=0;entryDy=0;endArrow=none;endFill=0;strokeWidth=3;curved=0;" edge="1" parent="w7LAmgqfVQM2vjNdfEjv-221" source="w7LAmgqfVQM2vjNdfEjv-121" target="w7LAmgqfVQM2vjNdfEjv-123">
          <mxGeometry relative="1" as="geometry" />
        </mxCell>
        <mxCell id="w7LAmgqfVQM2vjNdfEjv-196" value="" style="group" vertex="1" connectable="0" parent="w7LAmgqfVQM2vjNdfEjv-221">
          <mxGeometry y="21.5" width="69" height="69" as="geometry" />
        </mxCell>
        <mxCell id="w7LAmgqfVQM2vjNdfEjv-101" value="" style="ellipse;whiteSpace=wrap;html=1;aspect=fixed;" vertex="1" parent="w7LAmgqfVQM2vjNdfEjv-196">
          <mxGeometry width="69" height="69" as="geometry" />
        </mxCell>
        <mxCell id="w7LAmgqfVQM2vjNdfEjv-110" style="rounded=0;orthogonalLoop=1;jettySize=auto;html=1;exitX=0.026;exitY=0.564;exitDx=0;exitDy=0;entryX=1;entryY=0;entryDx=0;entryDy=0;endArrow=none;endFill=0;exitPerimeter=0;" edge="1" parent="w7LAmgqfVQM2vjNdfEjv-196" source="w7LAmgqfVQM2vjNdfEjv-111" target="w7LAmgqfVQM2vjNdfEjv-113">
          <mxGeometry relative="1" as="geometry" />
        </mxCell>
        <mxCell id="w7LAmgqfVQM2vjNdfEjv-111" value="" style="ellipse;whiteSpace=wrap;html=1;aspect=fixed;" vertex="1" parent="w7LAmgqfVQM2vjNdfEjv-196">
          <mxGeometry x="36.5" y="11" width="20" height="20" as="geometry" />
        </mxCell>
        <mxCell id="w7LAmgqfVQM2vjNdfEjv-112" style="rounded=0;orthogonalLoop=1;jettySize=auto;html=1;exitX=1;exitY=1;exitDx=0;exitDy=0;entryX=0;entryY=0.5;entryDx=0;entryDy=0;endArrow=none;endFill=0;" edge="1" parent="w7LAmgqfVQM2vjNdfEjv-196" source="w7LAmgqfVQM2vjNdfEjv-113" target="w7LAmgqfVQM2vjNdfEjv-114">
          <mxGeometry relative="1" as="geometry" />
        </mxCell>
        <mxCell id="w7LAmgqfVQM2vjNdfEjv-113" value="" style="ellipse;whiteSpace=wrap;html=1;aspect=fixed;" vertex="1" parent="w7LAmgqfVQM2vjNdfEjv-196">
          <mxGeometry x="6.5" y="26" width="20" height="20" as="geometry" />
        </mxCell>
        <mxCell id="w7LAmgqfVQM2vjNdfEjv-114" value="" style="ellipse;whiteSpace=wrap;html=1;aspect=fixed;" vertex="1" parent="w7LAmgqfVQM2vjNdfEjv-196">
          <mxGeometry x="36.5" y="36" width="20" height="20" as="geometry" />
        </mxCell>
        <mxCell id="w7LAmgqfVQM2vjNdfEjv-197" value="" style="group" vertex="1" connectable="0" parent="w7LAmgqfVQM2vjNdfEjv-221">
          <mxGeometry y="101.5" width="69" height="69" as="geometry" />
        </mxCell>
        <mxCell id="w7LAmgqfVQM2vjNdfEjv-115" value="" style="ellipse;whiteSpace=wrap;html=1;aspect=fixed;" vertex="1" parent="w7LAmgqfVQM2vjNdfEjv-197">
          <mxGeometry width="69" height="69" as="geometry" />
        </mxCell>
        <mxCell id="w7LAmgqfVQM2vjNdfEjv-137" style="rounded=0;orthogonalLoop=1;jettySize=auto;html=1;exitX=0.5;exitY=0;exitDx=0;exitDy=0;entryX=0.5;entryY=1;entryDx=0;entryDy=0;endArrow=none;endFill=0;" edge="1" parent="w7LAmgqfVQM2vjNdfEjv-197" source="w7LAmgqfVQM2vjNdfEjv-130" target="w7LAmgqfVQM2vjNdfEjv-132">
          <mxGeometry relative="1" as="geometry" />
        </mxCell>
        <mxCell id="w7LAmgqfVQM2vjNdfEjv-139" style="rounded=0;orthogonalLoop=1;jettySize=auto;html=1;exitX=1;exitY=0;exitDx=0;exitDy=0;entryX=0;entryY=1;entryDx=0;entryDy=0;endArrow=none;endFill=0;" edge="1" parent="w7LAmgqfVQM2vjNdfEjv-197" source="w7LAmgqfVQM2vjNdfEjv-130" target="w7LAmgqfVQM2vjNdfEjv-134">
          <mxGeometry relative="1" as="geometry" />
        </mxCell>
        <mxCell id="w7LAmgqfVQM2vjNdfEjv-130" value="" style="ellipse;whiteSpace=wrap;html=1;aspect=fixed;" vertex="1" parent="w7LAmgqfVQM2vjNdfEjv-197">
          <mxGeometry x="7.5" y="30" width="20" height="20" as="geometry" />
        </mxCell>
        <mxCell id="w7LAmgqfVQM2vjNdfEjv-135" style="rounded=0;orthogonalLoop=1;jettySize=auto;html=1;exitX=0;exitY=0;exitDx=0;exitDy=0;entryX=1;entryY=1;entryDx=0;entryDy=0;endArrow=none;endFill=0;" edge="1" parent="w7LAmgqfVQM2vjNdfEjv-197" source="w7LAmgqfVQM2vjNdfEjv-131" target="w7LAmgqfVQM2vjNdfEjv-130">
          <mxGeometry relative="1" as="geometry" />
        </mxCell>
        <mxCell id="w7LAmgqfVQM2vjNdfEjv-136" style="rounded=0;orthogonalLoop=1;jettySize=auto;html=1;exitX=1;exitY=0;exitDx=0;exitDy=0;entryX=0;entryY=1;entryDx=0;entryDy=0;endArrow=none;endFill=0;" edge="1" parent="w7LAmgqfVQM2vjNdfEjv-197" source="w7LAmgqfVQM2vjNdfEjv-131" target="w7LAmgqfVQM2vjNdfEjv-133">
          <mxGeometry relative="1" as="geometry" />
        </mxCell>
        <mxCell id="w7LAmgqfVQM2vjNdfEjv-131" value="" style="ellipse;whiteSpace=wrap;html=1;aspect=fixed;" vertex="1" parent="w7LAmgqfVQM2vjNdfEjv-197">
          <mxGeometry x="24.5" y="48" width="20" height="20" as="geometry" />
        </mxCell>
        <mxCell id="w7LAmgqfVQM2vjNdfEjv-132" value="" style="ellipse;whiteSpace=wrap;html=1;aspect=fixed;" vertex="1" parent="w7LAmgqfVQM2vjNdfEjv-197">
          <mxGeometry x="9.5" y="6" width="20" height="20" as="geometry" />
        </mxCell>
        <mxCell id="w7LAmgqfVQM2vjNdfEjv-133" value="" style="ellipse;whiteSpace=wrap;html=1;aspect=fixed;" vertex="1" parent="w7LAmgqfVQM2vjNdfEjv-197">
          <mxGeometry x="42.5" y="30" width="20" height="20" as="geometry" />
        </mxCell>
        <mxCell id="w7LAmgqfVQM2vjNdfEjv-134" value="" style="ellipse;whiteSpace=wrap;html=1;aspect=fixed;" vertex="1" parent="w7LAmgqfVQM2vjNdfEjv-197">
          <mxGeometry x="39.5" y="7" width="20" height="20" as="geometry" />
        </mxCell>
        <mxCell id="w7LAmgqfVQM2vjNdfEjv-138" style="rounded=0;orthogonalLoop=1;jettySize=auto;html=1;exitX=1;exitY=0.5;exitDx=0;exitDy=0;endArrow=none;endFill=0;entryX=0;entryY=0.5;entryDx=0;entryDy=0;" edge="1" parent="w7LAmgqfVQM2vjNdfEjv-197" source="w7LAmgqfVQM2vjNdfEjv-132" target="w7LAmgqfVQM2vjNdfEjv-134">
          <mxGeometry relative="1" as="geometry">
            <mxPoint x="40" y="20" as="targetPoint" />
          </mxGeometry>
        </mxCell>
        <mxCell id="w7LAmgqfVQM2vjNdfEjv-222" value="" style="group" vertex="1" connectable="0" parent="1">
          <mxGeometry x="150" y="646" width="140" height="130" as="geometry" />
        </mxCell>
        <mxCell id="w7LAmgqfVQM2vjNdfEjv-199" value="" style="whiteSpace=wrap;html=1;aspect=fixed;" vertex="1" parent="w7LAmgqfVQM2vjNdfEjv-222">
          <mxGeometry width="56" height="56" as="geometry" />
        </mxCell>
        <mxCell id="w7LAmgqfVQM2vjNdfEjv-200" value="" style="whiteSpace=wrap;html=1;aspect=fixed;" vertex="1" parent="w7LAmgqfVQM2vjNdfEjv-222">
          <mxGeometry x="84" width="56" height="56" as="geometry" />
        </mxCell>
        <mxCell id="w7LAmgqfVQM2vjNdfEjv-201" value="" style="whiteSpace=wrap;html=1;aspect=fixed;" vertex="1" parent="w7LAmgqfVQM2vjNdfEjv-222">
          <mxGeometry x="42" y="74" width="56" height="56" as="geometry" />
        </mxCell>
        <mxCell id="w7LAmgqfVQM2vjNdfEjv-210" style="rounded=0;orthogonalLoop=1;jettySize=auto;html=1;exitX=1;exitY=0.5;exitDx=0;exitDy=0;entryX=0;entryY=0.5;entryDx=0;entryDy=0;strokeWidth=3;endArrow=none;endFill=0;" edge="1" parent="w7LAmgqfVQM2vjNdfEjv-222" source="w7LAmgqfVQM2vjNdfEjv-204" target="w7LAmgqfVQM2vjNdfEjv-206">
          <mxGeometry relative="1" as="geometry" />
        </mxCell>
        <mxCell id="w7LAmgqfVQM2vjNdfEjv-211" style="rounded=0;orthogonalLoop=1;jettySize=auto;html=1;exitX=1;exitY=1;exitDx=0;exitDy=0;entryX=0;entryY=0;entryDx=0;entryDy=0;endArrow=none;endFill=0;strokeWidth=3;" edge="1" parent="w7LAmgqfVQM2vjNdfEjv-222" source="w7LAmgqfVQM2vjNdfEjv-204" target="w7LAmgqfVQM2vjNdfEjv-205">
          <mxGeometry relative="1" as="geometry" />
        </mxCell>
        <mxCell id="w7LAmgqfVQM2vjNdfEjv-204" value="" style="ellipse;whiteSpace=wrap;html=1;aspect=fixed;" vertex="1" parent="w7LAmgqfVQM2vjNdfEjv-222">
          <mxGeometry x="7" y="3.5" width="20" height="20" as="geometry" />
        </mxCell>
        <mxCell id="w7LAmgqfVQM2vjNdfEjv-205" value="" style="ellipse;whiteSpace=wrap;html=1;aspect=fixed;" vertex="1" parent="w7LAmgqfVQM2vjNdfEjv-222">
          <mxGeometry x="27" y="26.5" width="20" height="20" as="geometry" />
        </mxCell>
        <mxCell id="w7LAmgqfVQM2vjNdfEjv-213" style="rounded=0;orthogonalLoop=1;jettySize=auto;html=1;exitX=0;exitY=1;exitDx=0;exitDy=0;entryX=0.5;entryY=0;entryDx=0;entryDy=0;endArrow=none;endFill=0;strokeWidth=3;" edge="1" parent="w7LAmgqfVQM2vjNdfEjv-222" source="w7LAmgqfVQM2vjNdfEjv-206" target="w7LAmgqfVQM2vjNdfEjv-207">
          <mxGeometry relative="1" as="geometry" />
        </mxCell>
        <mxCell id="w7LAmgqfVQM2vjNdfEjv-206" value="" style="ellipse;whiteSpace=wrap;html=1;aspect=fixed;" vertex="1" parent="w7LAmgqfVQM2vjNdfEjv-222">
          <mxGeometry x="99" y="3.5" width="20" height="20" as="geometry" />
        </mxCell>
        <mxCell id="w7LAmgqfVQM2vjNdfEjv-212" style="rounded=0;orthogonalLoop=1;jettySize=auto;html=1;exitX=0;exitY=1;exitDx=0;exitDy=0;entryX=0.5;entryY=0;entryDx=0;entryDy=0;endArrow=none;endFill=0;strokeWidth=3;" edge="1" parent="w7LAmgqfVQM2vjNdfEjv-222" source="w7LAmgqfVQM2vjNdfEjv-207" target="w7LAmgqfVQM2vjNdfEjv-208">
          <mxGeometry relative="1" as="geometry" />
        </mxCell>
        <mxCell id="w7LAmgqfVQM2vjNdfEjv-215" style="rounded=0;orthogonalLoop=1;jettySize=auto;html=1;exitX=1;exitY=0.5;exitDx=0;exitDy=0;entryX=0.001;entryY=0.601;entryDx=0;entryDy=0;endArrow=none;endFill=0;strokeWidth=3;entryPerimeter=0;" edge="1" parent="w7LAmgqfVQM2vjNdfEjv-222" source="w7LAmgqfVQM2vjNdfEjv-207" target="w7LAmgqfVQM2vjNdfEjv-209">
          <mxGeometry relative="1" as="geometry" />
        </mxCell>
        <mxCell id="w7LAmgqfVQM2vjNdfEjv-207" value="" style="ellipse;whiteSpace=wrap;html=1;aspect=fixed;" vertex="1" parent="w7LAmgqfVQM2vjNdfEjv-222">
          <mxGeometry x="89" y="29.5" width="20" height="20" as="geometry" />
        </mxCell>
        <mxCell id="w7LAmgqfVQM2vjNdfEjv-208" value="" style="ellipse;whiteSpace=wrap;html=1;aspect=fixed;" vertex="1" parent="w7LAmgqfVQM2vjNdfEjv-222">
          <mxGeometry x="60" y="92" width="20" height="20" as="geometry" />
        </mxCell>
        <mxCell id="w7LAmgqfVQM2vjNdfEjv-209" value="" style="ellipse;whiteSpace=wrap;html=1;aspect=fixed;" vertex="1" parent="w7LAmgqfVQM2vjNdfEjv-222">
          <mxGeometry x="118" y="26" width="20" height="20" as="geometry" />
        </mxCell>
        <mxCell id="w7LAmgqfVQM2vjNdfEjv-214" style="rounded=0;orthogonalLoop=1;jettySize=auto;html=1;exitX=1;exitY=1;exitDx=0;exitDy=0;entryX=0;entryY=0;entryDx=0;entryDy=0;endArrow=none;endFill=0;strokeWidth=3;" edge="1" parent="w7LAmgqfVQM2vjNdfEjv-222" source="w7LAmgqfVQM2vjNdfEjv-206" target="w7LAmgqfVQM2vjNdfEjv-209">
          <mxGeometry relative="1" as="geometry" />
        </mxCell>
        <mxCell id="w7LAmgqfVQM2vjNdfEjv-223" value="" style="group" vertex="1" connectable="0" parent="1">
          <mxGeometry x="150" y="410" width="200" height="143" as="geometry" />
        </mxCell>
        <mxCell id="w7LAmgqfVQM2vjNdfEjv-69" style="rounded=0;orthogonalLoop=1;jettySize=auto;html=1;exitX=0.026;exitY=0.564;exitDx=0;exitDy=0;entryX=1;entryY=0;entryDx=0;entryDy=0;endArrow=none;endFill=0;exitPerimeter=0;" edge="1" parent="w7LAmgqfVQM2vjNdfEjv-223" source="w7LAmgqfVQM2vjNdfEjv-41" target="w7LAmgqfVQM2vjNdfEjv-44">
          <mxGeometry relative="1" as="geometry" />
        </mxCell>
        <mxCell id="w7LAmgqfVQM2vjNdfEjv-41" value="" style="ellipse;whiteSpace=wrap;html=1;aspect=fixed;" vertex="1" parent="w7LAmgqfVQM2vjNdfEjv-223">
          <mxGeometry x="30" y="5" width="20" height="20" as="geometry" />
        </mxCell>
        <mxCell id="w7LAmgqfVQM2vjNdfEjv-71" style="rounded=0;orthogonalLoop=1;jettySize=auto;html=1;exitX=1;exitY=1;exitDx=0;exitDy=0;entryX=0;entryY=0.5;entryDx=0;entryDy=0;endArrow=none;endFill=0;" edge="1" parent="w7LAmgqfVQM2vjNdfEjv-223" source="w7LAmgqfVQM2vjNdfEjv-42" target="w7LAmgqfVQM2vjNdfEjv-45">
          <mxGeometry relative="1" as="geometry" />
        </mxCell>
        <mxCell id="w7LAmgqfVQM2vjNdfEjv-42" value="" style="ellipse;whiteSpace=wrap;html=1;aspect=fixed;" vertex="1" parent="w7LAmgqfVQM2vjNdfEjv-223">
          <mxGeometry y="47" width="20" height="20" as="geometry" />
        </mxCell>
        <mxCell id="w7LAmgqfVQM2vjNdfEjv-43" value="" style="ellipse;whiteSpace=wrap;html=1;aspect=fixed;" vertex="1" parent="w7LAmgqfVQM2vjNdfEjv-223">
          <mxGeometry y="79" width="20" height="20" as="geometry" />
        </mxCell>
        <mxCell id="w7LAmgqfVQM2vjNdfEjv-70" style="edgeStyle=orthogonalEdgeStyle;rounded=0;orthogonalLoop=1;jettySize=auto;html=1;exitX=0.5;exitY=1;exitDx=0;exitDy=0;entryX=0.5;entryY=0;entryDx=0;entryDy=0;endArrow=none;endFill=0;" edge="1" parent="w7LAmgqfVQM2vjNdfEjv-223" source="w7LAmgqfVQM2vjNdfEjv-44" target="w7LAmgqfVQM2vjNdfEjv-42">
          <mxGeometry relative="1" as="geometry" />
        </mxCell>
        <mxCell id="w7LAmgqfVQM2vjNdfEjv-72" style="rounded=0;orthogonalLoop=1;jettySize=auto;html=1;exitX=1;exitY=1;exitDx=0;exitDy=0;entryX=0;entryY=0.5;entryDx=0;entryDy=0;endArrow=none;endFill=0;" edge="1" parent="w7LAmgqfVQM2vjNdfEjv-223" source="w7LAmgqfVQM2vjNdfEjv-44" target="w7LAmgqfVQM2vjNdfEjv-47">
          <mxGeometry relative="1" as="geometry" />
        </mxCell>
        <mxCell id="w7LAmgqfVQM2vjNdfEjv-44" value="" style="ellipse;whiteSpace=wrap;html=1;aspect=fixed;" vertex="1" parent="w7LAmgqfVQM2vjNdfEjv-223">
          <mxGeometry y="20" width="20" height="20" as="geometry" />
        </mxCell>
        <mxCell id="w7LAmgqfVQM2vjNdfEjv-80" style="rounded=0;orthogonalLoop=1;jettySize=auto;html=1;exitX=1;exitY=1;exitDx=0;exitDy=0;entryX=0;entryY=0;entryDx=0;entryDy=0;endArrow=none;endFill=0;" edge="1" parent="w7LAmgqfVQM2vjNdfEjv-223" source="w7LAmgqfVQM2vjNdfEjv-45" target="w7LAmgqfVQM2vjNdfEjv-49">
          <mxGeometry relative="1" as="geometry" />
        </mxCell>
        <mxCell id="w7LAmgqfVQM2vjNdfEjv-45" value="" style="ellipse;whiteSpace=wrap;html=1;aspect=fixed;" vertex="1" parent="w7LAmgqfVQM2vjNdfEjv-223">
          <mxGeometry x="30" y="57" width="20" height="20" as="geometry" />
        </mxCell>
        <mxCell id="w7LAmgqfVQM2vjNdfEjv-79" style="rounded=0;orthogonalLoop=1;jettySize=auto;html=1;exitX=1;exitY=0.5;exitDx=0;exitDy=0;entryX=0.141;entryY=0.78;entryDx=0;entryDy=0;endArrow=none;endFill=0;entryPerimeter=0;" edge="1" parent="w7LAmgqfVQM2vjNdfEjv-223" source="w7LAmgqfVQM2vjNdfEjv-46" target="w7LAmgqfVQM2vjNdfEjv-49">
          <mxGeometry relative="1" as="geometry" />
        </mxCell>
        <mxCell id="w7LAmgqfVQM2vjNdfEjv-46" value="" style="ellipse;whiteSpace=wrap;html=1;aspect=fixed;" vertex="1" parent="w7LAmgqfVQM2vjNdfEjv-223">
          <mxGeometry x="30" y="91" width="20" height="20" as="geometry" />
        </mxCell>
        <mxCell id="w7LAmgqfVQM2vjNdfEjv-73" style="rounded=0;orthogonalLoop=1;jettySize=auto;html=1;exitX=1;exitY=1;exitDx=0;exitDy=0;entryX=0;entryY=0;entryDx=0;entryDy=0;endArrow=none;endFill=0;" edge="1" parent="w7LAmgqfVQM2vjNdfEjv-223" source="w7LAmgqfVQM2vjNdfEjv-47" target="w7LAmgqfVQM2vjNdfEjv-51">
          <mxGeometry relative="1" as="geometry" />
        </mxCell>
        <mxCell id="w7LAmgqfVQM2vjNdfEjv-47" value="" style="ellipse;whiteSpace=wrap;html=1;aspect=fixed;" vertex="1" parent="w7LAmgqfVQM2vjNdfEjv-223">
          <mxGeometry x="30" y="30" width="20" height="20" as="geometry" />
        </mxCell>
        <mxCell id="w7LAmgqfVQM2vjNdfEjv-75" style="rounded=0;orthogonalLoop=1;jettySize=auto;html=1;exitX=1;exitY=1;exitDx=0;exitDy=0;entryX=0;entryY=0;entryDx=0;entryDy=0;endArrow=none;endFill=0;" edge="1" parent="w7LAmgqfVQM2vjNdfEjv-223" source="w7LAmgqfVQM2vjNdfEjv-48" target="w7LAmgqfVQM2vjNdfEjv-56">
          <mxGeometry relative="1" as="geometry" />
        </mxCell>
        <mxCell id="w7LAmgqfVQM2vjNdfEjv-48" value="" style="ellipse;whiteSpace=wrap;html=1;aspect=fixed;" vertex="1" parent="w7LAmgqfVQM2vjNdfEjv-223">
          <mxGeometry x="60" y="10" width="20" height="20" as="geometry" />
        </mxCell>
        <mxCell id="w7LAmgqfVQM2vjNdfEjv-49" value="" style="ellipse;whiteSpace=wrap;html=1;aspect=fixed;" vertex="1" parent="w7LAmgqfVQM2vjNdfEjv-223">
          <mxGeometry x="60" y="77" width="20" height="20" as="geometry" />
        </mxCell>
        <mxCell id="w7LAmgqfVQM2vjNdfEjv-78" style="rounded=0;orthogonalLoop=1;jettySize=auto;html=1;exitX=0.5;exitY=0;exitDx=0;exitDy=0;entryX=0.5;entryY=1;entryDx=0;entryDy=0;endArrow=none;endFill=0;" edge="1" parent="w7LAmgqfVQM2vjNdfEjv-223" source="w7LAmgqfVQM2vjNdfEjv-50" target="w7LAmgqfVQM2vjNdfEjv-49">
          <mxGeometry relative="1" as="geometry" />
        </mxCell>
        <mxCell id="w7LAmgqfVQM2vjNdfEjv-50" value="" style="ellipse;whiteSpace=wrap;html=1;aspect=fixed;" vertex="1" parent="w7LAmgqfVQM2vjNdfEjv-223">
          <mxGeometry x="60" y="110" width="20" height="20" as="geometry" />
        </mxCell>
        <mxCell id="w7LAmgqfVQM2vjNdfEjv-76" style="rounded=0;orthogonalLoop=1;jettySize=auto;html=1;exitX=1;exitY=0.5;exitDx=0;exitDy=0;entryX=0;entryY=0;entryDx=0;entryDy=0;endArrow=none;endFill=0;" edge="1" parent="w7LAmgqfVQM2vjNdfEjv-223" source="w7LAmgqfVQM2vjNdfEjv-51" target="w7LAmgqfVQM2vjNdfEjv-54">
          <mxGeometry relative="1" as="geometry" />
        </mxCell>
        <mxCell id="w7LAmgqfVQM2vjNdfEjv-77" style="rounded=0;orthogonalLoop=1;jettySize=auto;html=1;exitX=0.5;exitY=1;exitDx=0;exitDy=0;entryX=0.5;entryY=0;entryDx=0;entryDy=0;endArrow=none;endFill=0;" edge="1" parent="w7LAmgqfVQM2vjNdfEjv-223" source="w7LAmgqfVQM2vjNdfEjv-51" target="w7LAmgqfVQM2vjNdfEjv-49">
          <mxGeometry relative="1" as="geometry" />
        </mxCell>
        <mxCell id="w7LAmgqfVQM2vjNdfEjv-51" value="" style="ellipse;whiteSpace=wrap;html=1;aspect=fixed;" vertex="1" parent="w7LAmgqfVQM2vjNdfEjv-223">
          <mxGeometry x="60" y="50" width="20" height="20" as="geometry" />
        </mxCell>
        <mxCell id="w7LAmgqfVQM2vjNdfEjv-52" value="" style="ellipse;whiteSpace=wrap;html=1;aspect=fixed;" vertex="1" parent="w7LAmgqfVQM2vjNdfEjv-223">
          <mxGeometry x="30" y="115" width="20" height="20" as="geometry" />
        </mxCell>
        <mxCell id="w7LAmgqfVQM2vjNdfEjv-93" style="rounded=0;orthogonalLoop=1;jettySize=auto;html=1;exitX=1;exitY=1;exitDx=0;exitDy=0;entryX=0;entryY=0;entryDx=0;entryDy=0;endArrow=none;endFill=0;" edge="1" parent="w7LAmgqfVQM2vjNdfEjv-223" source="w7LAmgqfVQM2vjNdfEjv-53" target="w7LAmgqfVQM2vjNdfEjv-58">
          <mxGeometry relative="1" as="geometry" />
        </mxCell>
        <mxCell id="w7LAmgqfVQM2vjNdfEjv-94" style="rounded=0;orthogonalLoop=1;jettySize=auto;html=1;exitX=1;exitY=0.5;exitDx=0;exitDy=0;entryX=0;entryY=0.5;entryDx=0;entryDy=0;endArrow=none;endFill=0;" edge="1" parent="w7LAmgqfVQM2vjNdfEjv-223" source="w7LAmgqfVQM2vjNdfEjv-53" target="w7LAmgqfVQM2vjNdfEjv-62">
          <mxGeometry relative="1" as="geometry" />
        </mxCell>
        <mxCell id="w7LAmgqfVQM2vjNdfEjv-53" value="" style="ellipse;whiteSpace=wrap;html=1;aspect=fixed;" vertex="1" parent="w7LAmgqfVQM2vjNdfEjv-223">
          <mxGeometry x="89" width="20" height="20" as="geometry" />
        </mxCell>
        <mxCell id="w7LAmgqfVQM2vjNdfEjv-81" style="rounded=0;orthogonalLoop=1;jettySize=auto;html=1;exitX=0.028;exitY=0.592;exitDx=0;exitDy=0;entryX=1;entryY=0;entryDx=0;entryDy=0;endArrow=none;endFill=0;exitPerimeter=0;" edge="1" parent="w7LAmgqfVQM2vjNdfEjv-223" source="w7LAmgqfVQM2vjNdfEjv-54" target="w7LAmgqfVQM2vjNdfEjv-49">
          <mxGeometry relative="1" as="geometry" />
        </mxCell>
        <mxCell id="w7LAmgqfVQM2vjNdfEjv-90" style="rounded=0;orthogonalLoop=1;jettySize=auto;html=1;exitX=1.005;exitY=0.577;exitDx=0;exitDy=0;entryX=0;entryY=0;entryDx=0;entryDy=0;endArrow=none;endFill=0;exitPerimeter=0;" edge="1" parent="w7LAmgqfVQM2vjNdfEjv-223" source="w7LAmgqfVQM2vjNdfEjv-54" target="w7LAmgqfVQM2vjNdfEjv-59">
          <mxGeometry relative="1" as="geometry" />
        </mxCell>
        <mxCell id="w7LAmgqfVQM2vjNdfEjv-54" value="" style="ellipse;whiteSpace=wrap;html=1;aspect=fixed;" vertex="1" parent="w7LAmgqfVQM2vjNdfEjv-223">
          <mxGeometry x="89" y="62" width="20" height="20" as="geometry" />
        </mxCell>
        <mxCell id="w7LAmgqfVQM2vjNdfEjv-87" style="rounded=0;orthogonalLoop=1;jettySize=auto;html=1;exitX=0.5;exitY=1;exitDx=0;exitDy=0;entryX=0.5;entryY=0;entryDx=0;entryDy=0;endArrow=none;endFill=0;" edge="1" parent="w7LAmgqfVQM2vjNdfEjv-223" source="w7LAmgqfVQM2vjNdfEjv-55" target="w7LAmgqfVQM2vjNdfEjv-57">
          <mxGeometry relative="1" as="geometry" />
        </mxCell>
        <mxCell id="w7LAmgqfVQM2vjNdfEjv-55" value="" style="ellipse;whiteSpace=wrap;html=1;aspect=fixed;" vertex="1" parent="w7LAmgqfVQM2vjNdfEjv-223">
          <mxGeometry x="89" y="89" width="20" height="20" as="geometry" />
        </mxCell>
        <mxCell id="w7LAmgqfVQM2vjNdfEjv-56" value="" style="ellipse;whiteSpace=wrap;html=1;aspect=fixed;" vertex="1" parent="w7LAmgqfVQM2vjNdfEjv-223">
          <mxGeometry x="89" y="30" width="20" height="20" as="geometry" />
        </mxCell>
        <mxCell id="w7LAmgqfVQM2vjNdfEjv-86" style="rounded=0;orthogonalLoop=1;jettySize=auto;html=1;exitX=1;exitY=0.5;exitDx=0;exitDy=0;entryX=0;entryY=0.5;entryDx=0;entryDy=0;endArrow=none;endFill=0;" edge="1" parent="w7LAmgqfVQM2vjNdfEjv-223" source="w7LAmgqfVQM2vjNdfEjv-57" target="w7LAmgqfVQM2vjNdfEjv-66">
          <mxGeometry relative="1" as="geometry" />
        </mxCell>
        <mxCell id="w7LAmgqfVQM2vjNdfEjv-57" value="" style="ellipse;whiteSpace=wrap;html=1;aspect=fixed;" vertex="1" parent="w7LAmgqfVQM2vjNdfEjv-223">
          <mxGeometry x="89" y="123" width="20" height="20" as="geometry" />
        </mxCell>
        <mxCell id="w7LAmgqfVQM2vjNdfEjv-58" value="" style="ellipse;whiteSpace=wrap;html=1;aspect=fixed;" vertex="1" parent="w7LAmgqfVQM2vjNdfEjv-223">
          <mxGeometry x="120" y="21" width="20" height="20" as="geometry" />
        </mxCell>
        <mxCell id="w7LAmgqfVQM2vjNdfEjv-91" style="rounded=0;orthogonalLoop=1;jettySize=auto;html=1;exitX=0.5;exitY=0;exitDx=0;exitDy=0;entryX=0.5;entryY=1;entryDx=0;entryDy=0;endArrow=none;endFill=0;" edge="1" parent="w7LAmgqfVQM2vjNdfEjv-223" source="w7LAmgqfVQM2vjNdfEjv-59" target="w7LAmgqfVQM2vjNdfEjv-61">
          <mxGeometry relative="1" as="geometry" />
        </mxCell>
        <mxCell id="w7LAmgqfVQM2vjNdfEjv-99" style="rounded=0;orthogonalLoop=1;jettySize=auto;html=1;exitX=0.85;exitY=0.78;exitDx=0;exitDy=0;entryX=0;entryY=0.5;entryDx=0;entryDy=0;endArrow=none;endFill=0;exitPerimeter=0;" edge="1" parent="w7LAmgqfVQM2vjNdfEjv-223" source="w7LAmgqfVQM2vjNdfEjv-59" target="w7LAmgqfVQM2vjNdfEjv-64">
          <mxGeometry relative="1" as="geometry" />
        </mxCell>
        <mxCell id="w7LAmgqfVQM2vjNdfEjv-59" value="" style="ellipse;whiteSpace=wrap;html=1;aspect=fixed;" vertex="1" parent="w7LAmgqfVQM2vjNdfEjv-223">
          <mxGeometry x="120" y="77" width="20" height="20" as="geometry" />
        </mxCell>
        <mxCell id="w7LAmgqfVQM2vjNdfEjv-60" value="" style="ellipse;whiteSpace=wrap;html=1;aspect=fixed;" vertex="1" parent="w7LAmgqfVQM2vjNdfEjv-223">
          <mxGeometry x="120" y="109" width="20" height="20" as="geometry" />
        </mxCell>
        <mxCell id="w7LAmgqfVQM2vjNdfEjv-92" style="rounded=0;orthogonalLoop=1;jettySize=auto;html=1;exitX=0.5;exitY=0;exitDx=0;exitDy=0;entryX=0.5;entryY=1;entryDx=0;entryDy=0;endArrow=none;endFill=0;" edge="1" parent="w7LAmgqfVQM2vjNdfEjv-223" source="w7LAmgqfVQM2vjNdfEjv-61" target="w7LAmgqfVQM2vjNdfEjv-58">
          <mxGeometry relative="1" as="geometry" />
        </mxCell>
        <mxCell id="w7LAmgqfVQM2vjNdfEjv-61" value="" style="ellipse;whiteSpace=wrap;html=1;aspect=fixed;" vertex="1" parent="w7LAmgqfVQM2vjNdfEjv-223">
          <mxGeometry x="120" y="51" width="20" height="20" as="geometry" />
        </mxCell>
        <mxCell id="w7LAmgqfVQM2vjNdfEjv-62" value="" style="ellipse;whiteSpace=wrap;html=1;aspect=fixed;" vertex="1" parent="w7LAmgqfVQM2vjNdfEjv-223">
          <mxGeometry x="149" width="20" height="20" as="geometry" />
        </mxCell>
        <mxCell id="w7LAmgqfVQM2vjNdfEjv-100" style="rounded=0;orthogonalLoop=1;jettySize=auto;html=1;exitX=0.5;exitY=1;exitDx=0;exitDy=0;entryX=0.5;entryY=0;entryDx=0;entryDy=0;endArrow=none;endFill=0;" edge="1" parent="w7LAmgqfVQM2vjNdfEjv-223" source="w7LAmgqfVQM2vjNdfEjv-63" target="w7LAmgqfVQM2vjNdfEjv-64">
          <mxGeometry relative="1" as="geometry" />
        </mxCell>
        <mxCell id="w7LAmgqfVQM2vjNdfEjv-63" value="" style="ellipse;whiteSpace=wrap;html=1;aspect=fixed;" vertex="1" parent="w7LAmgqfVQM2vjNdfEjv-223">
          <mxGeometry x="149" y="58" width="20" height="20" as="geometry" />
        </mxCell>
        <mxCell id="w7LAmgqfVQM2vjNdfEjv-64" value="" style="ellipse;whiteSpace=wrap;html=1;aspect=fixed;" vertex="1" parent="w7LAmgqfVQM2vjNdfEjv-223">
          <mxGeometry x="149" y="90" width="20" height="20" as="geometry" />
        </mxCell>
        <mxCell id="w7LAmgqfVQM2vjNdfEjv-65" value="" style="ellipse;whiteSpace=wrap;html=1;aspect=fixed;" vertex="1" parent="w7LAmgqfVQM2vjNdfEjv-223">
          <mxGeometry x="149" y="31" width="20" height="20" as="geometry" />
        </mxCell>
        <mxCell id="w7LAmgqfVQM2vjNdfEjv-66" value="" style="ellipse;whiteSpace=wrap;html=1;aspect=fixed;" vertex="1" parent="w7LAmgqfVQM2vjNdfEjv-223">
          <mxGeometry x="149" y="123" width="20" height="20" as="geometry" />
        </mxCell>
        <mxCell id="w7LAmgqfVQM2vjNdfEjv-98" style="rounded=0;orthogonalLoop=1;jettySize=auto;html=1;exitX=0;exitY=1;exitDx=0;exitDy=0;entryX=1;entryY=0;entryDx=0;entryDy=0;endArrow=none;endFill=0;" edge="1" parent="w7LAmgqfVQM2vjNdfEjv-223" source="w7LAmgqfVQM2vjNdfEjv-67" target="w7LAmgqfVQM2vjNdfEjv-66">
          <mxGeometry relative="1" as="geometry" />
        </mxCell>
        <mxCell id="w7LAmgqfVQM2vjNdfEjv-67" value="" style="ellipse;whiteSpace=wrap;html=1;aspect=fixed;" vertex="1" parent="w7LAmgqfVQM2vjNdfEjv-223">
          <mxGeometry x="180" y="80" width="20" height="20" as="geometry" />
        </mxCell>
        <mxCell id="w7LAmgqfVQM2vjNdfEjv-68" value="" style="ellipse;whiteSpace=wrap;html=1;aspect=fixed;" vertex="1" parent="w7LAmgqfVQM2vjNdfEjv-223">
          <mxGeometry x="180" y="50" width="20" height="20" as="geometry" />
        </mxCell>
        <mxCell id="w7LAmgqfVQM2vjNdfEjv-74" style="rounded=0;orthogonalLoop=1;jettySize=auto;html=1;exitX=1;exitY=0.5;exitDx=0;exitDy=0;endArrow=none;endFill=0;entryX=0;entryY=0.5;entryDx=0;entryDy=0;" edge="1" parent="w7LAmgqfVQM2vjNdfEjv-223" source="w7LAmgqfVQM2vjNdfEjv-47" target="w7LAmgqfVQM2vjNdfEjv-56">
          <mxGeometry relative="1" as="geometry">
            <mxPoint x="90" y="40" as="targetPoint" />
          </mxGeometry>
        </mxCell>
        <mxCell id="w7LAmgqfVQM2vjNdfEjv-82" style="rounded=0;orthogonalLoop=1;jettySize=auto;html=1;exitX=1;exitY=1;exitDx=0;exitDy=0;entryX=-0.019;entryY=0.601;entryDx=0;entryDy=0;entryPerimeter=0;endArrow=none;endFill=0;" edge="1" parent="w7LAmgqfVQM2vjNdfEjv-223" source="w7LAmgqfVQM2vjNdfEjv-49" target="w7LAmgqfVQM2vjNdfEjv-55">
          <mxGeometry relative="1" as="geometry" />
        </mxCell>
        <mxCell id="w7LAmgqfVQM2vjNdfEjv-83" style="rounded=0;orthogonalLoop=1;jettySize=auto;html=1;exitX=0.5;exitY=1;exitDx=0;exitDy=0;endArrow=none;endFill=0;entryX=0.5;entryY=0;entryDx=0;entryDy=0;" edge="1" parent="w7LAmgqfVQM2vjNdfEjv-223" source="w7LAmgqfVQM2vjNdfEjv-46" target="w7LAmgqfVQM2vjNdfEjv-52">
          <mxGeometry relative="1" as="geometry">
            <mxPoint x="40" y="110" as="targetPoint" />
          </mxGeometry>
        </mxCell>
        <mxCell id="w7LAmgqfVQM2vjNdfEjv-84" style="rounded=0;orthogonalLoop=1;jettySize=auto;html=1;exitX=0;exitY=0;exitDx=0;exitDy=0;entryX=0.5;entryY=1;entryDx=0;entryDy=0;endArrow=none;endFill=0;" edge="1" parent="w7LAmgqfVQM2vjNdfEjv-223" source="w7LAmgqfVQM2vjNdfEjv-52" target="w7LAmgqfVQM2vjNdfEjv-43">
          <mxGeometry relative="1" as="geometry" />
        </mxCell>
        <mxCell id="w7LAmgqfVQM2vjNdfEjv-88" style="rounded=0;orthogonalLoop=1;jettySize=auto;html=1;exitX=0;exitY=1;exitDx=0;exitDy=0;entryX=0.92;entryY=0.241;entryDx=0;entryDy=0;entryPerimeter=0;endArrow=none;endFill=0;" edge="1" parent="w7LAmgqfVQM2vjNdfEjv-223" source="w7LAmgqfVQM2vjNdfEjv-55" target="w7LAmgqfVQM2vjNdfEjv-50">
          <mxGeometry relative="1" as="geometry" />
        </mxCell>
        <mxCell id="w7LAmgqfVQM2vjNdfEjv-89" style="rounded=0;orthogonalLoop=1;jettySize=auto;html=1;exitX=1;exitY=1;exitDx=0;exitDy=0;entryX=0.094;entryY=0.263;entryDx=0;entryDy=0;entryPerimeter=0;endArrow=none;endFill=0;" edge="1" parent="w7LAmgqfVQM2vjNdfEjv-223" source="w7LAmgqfVQM2vjNdfEjv-55" target="w7LAmgqfVQM2vjNdfEjv-60">
          <mxGeometry relative="1" as="geometry" />
        </mxCell>
        <mxCell id="w7LAmgqfVQM2vjNdfEjv-95" style="rounded=0;orthogonalLoop=1;jettySize=auto;html=1;exitX=0;exitY=1;exitDx=0;exitDy=0;entryX=0.908;entryY=0.243;entryDx=0;entryDy=0;entryPerimeter=0;endArrow=none;endFill=0;" edge="1" parent="w7LAmgqfVQM2vjNdfEjv-223" source="w7LAmgqfVQM2vjNdfEjv-65" target="w7LAmgqfVQM2vjNdfEjv-61">
          <mxGeometry relative="1" as="geometry" />
        </mxCell>
        <mxCell id="w7LAmgqfVQM2vjNdfEjv-96" style="rounded=0;orthogonalLoop=1;jettySize=auto;html=1;exitX=1;exitY=1;exitDx=0;exitDy=0;entryX=0.083;entryY=0.235;entryDx=0;entryDy=0;entryPerimeter=0;endArrow=none;endFill=0;" edge="1" parent="w7LAmgqfVQM2vjNdfEjv-223" source="w7LAmgqfVQM2vjNdfEjv-65" target="w7LAmgqfVQM2vjNdfEjv-68">
          <mxGeometry relative="1" as="geometry" />
        </mxCell>
        <mxCell id="w7LAmgqfVQM2vjNdfEjv-97" style="rounded=0;orthogonalLoop=1;jettySize=auto;html=1;exitX=1;exitY=1;exitDx=0;exitDy=0;entryX=0;entryY=0;entryDx=0;entryDy=0;endArrow=none;endFill=0;" edge="1" parent="w7LAmgqfVQM2vjNdfEjv-223" source="w7LAmgqfVQM2vjNdfEjv-63" target="w7LAmgqfVQM2vjNdfEjv-67">
          <mxGeometry relative="1" as="geometry" />
        </mxCell>
        <mxCell id="w7LAmgqfVQM2vjNdfEjv-224" value="" style="endArrow=classic;html=1;rounded=0;strokeWidth=3;endFill=0;" edge="1" parent="1">
          <mxGeometry width="50" height="50" relative="1" as="geometry">
            <mxPoint x="430" y="400" as="sourcePoint" />
            <mxPoint x="340" y="440" as="targetPoint" />
          </mxGeometry>
        </mxCell>
        <mxCell id="w7LAmgqfVQM2vjNdfEjv-225" value="" style="endArrow=classic;html=1;rounded=0;strokeWidth=3;endFill=0;" edge="1" parent="1">
          <mxGeometry width="50" height="50" relative="1" as="geometry">
            <mxPoint x="330" y="530" as="sourcePoint" />
            <mxPoint x="410" y="580" as="targetPoint" />
          </mxGeometry>
        </mxCell>
        <mxCell id="w7LAmgqfVQM2vjNdfEjv-226" value="" style="endArrow=classic;html=1;rounded=0;strokeWidth=3;endFill=0;" edge="1" parent="1">
          <mxGeometry width="50" height="50" relative="1" as="geometry">
            <mxPoint x="400" y="630" as="sourcePoint" />
            <mxPoint x="310" y="670" as="targetPoint" />
          </mxGeometry>
        </mxCell>
        <mxCell id="w7LAmgqfVQM2vjNdfEjv-227" value="" style="endArrow=classic;html=1;rounded=0;strokeWidth=3;endFill=0;" edge="1" parent="1">
          <mxGeometry width="50" height="50" relative="1" as="geometry">
            <mxPoint x="330" y="290" as="sourcePoint" />
            <mxPoint x="410" y="340" as="targetPoint" />
          </mxGeometry>
        </mxCell>
        <mxCell id="w7LAmgqfVQM2vjNdfEjv-228" value="&lt;font size=&quot;1&quot; style=&quot;&quot; face=&quot;Times New Roman&quot;&gt;&lt;b style=&quot;font-size: 16px;&quot;&gt;map&lt;/b&gt;&lt;/font&gt;" style="text;html=1;align=center;verticalAlign=middle;whiteSpace=wrap;rounded=0;" vertex="1" parent="1">
          <mxGeometry x="300" y="617" width="97" height="30" as="geometry" />
        </mxCell>
        <mxCell id="w7LAmgqfVQM2vjNdfEjv-229" value="&lt;font size=&quot;1&quot; style=&quot;&quot; face=&quot;Times New Roman&quot;&gt;&lt;b style=&quot;font-size: 16px;&quot;&gt;partition&lt;/b&gt;&lt;/font&gt;" style="text;html=1;align=center;verticalAlign=middle;whiteSpace=wrap;rounded=0;" vertex="1" parent="1">
          <mxGeometry x="361" y="279" width="60" height="30" as="geometry" />
        </mxCell>
        <mxCell id="w7LAmgqfVQM2vjNdfEjv-231" value="&lt;font size=&quot;1&quot; style=&quot;&quot; face=&quot;Times New Roman&quot;&gt;&lt;b style=&quot;font-size: 16px;&quot;&gt;communicate&lt;/b&gt;&lt;/font&gt;" style="text;html=1;align=center;verticalAlign=middle;whiteSpace=wrap;rounded=0;" vertex="1" parent="1">
          <mxGeometry x="319" y="380" width="97" height="30" as="geometry" />
        </mxCell>
        <mxCell id="w7LAmgqfVQM2vjNdfEjv-232" value="&lt;font size=&quot;1&quot; style=&quot;&quot; face=&quot;Times New Roman&quot;&gt;&lt;b style=&quot;font-size: 16px;&quot;&gt;agglomerate&lt;/b&gt;&lt;/font&gt;" style="text;html=1;align=center;verticalAlign=middle;whiteSpace=wrap;rounded=0;" vertex="1" parent="1">
          <mxGeometry x="341.5" y="512.5" width="97" height="30" as="geometry" />
        </mxCell>
      </root>
    </mxGraphModel>
  </diagram>
</mxfile>
